<svg version="1.1" viewBox="0 0 128 128" xmlns="http://www.w3.org/2000/svg"><style type="text/css">.st0{opacity:0.5;}.st1{fill:#3d46fe;}.st2{display:none;}.st3{display:inline;fill:#5880FA;}.st4{display:inline;}.st5{fill:#2F36C9;}</style><g class="st2" transform="translate(-21.34 46.424)" display="none"><g fill="#5880fa"><path class="st3" d="m131 65.9h-10.2l-0.9-8h-14.4l-4.6 8h-10.6l23.5-39.3h11.7zm-11.9-15.1-1.6-14-8 14z"/><path class="st3" d="m175.7 36.5c0 3.1-1 5.8-2.9 7.9s-4.5 3.8-7.8 4.9l9.1 16.6h-11.3l-7.4-14.4h-5.7l-3.3 14.4h-10.1l9.1-39.3h15.3c4.8 0 8.5 0.8 11.1 2.4 2.6 1.7 3.9 4.2 3.9 7.5zm-11 1.7c0-1.6-0.5-2.7-1.5-3.4s-2.5-1-4.5-1h-5l-2.4 10.5h5c2.7 0 4.8-0.5 6.2-1.6 1.5-1 2.2-2.5 2.2-4.5z"/><path class="st3" d="m199.7 65.9h-23l1.6-7h6.4l5.9-25.3h-6.4l1.6-7h23l-1.6 7h-6.4l-5.9 25.3h6.4z"/><path class="st3" d="m251.4 41.2c0 3.2-0.5 6.4-1.6 9.5s-2.7 5.8-4.7 8.1c-2.3 2.5-4.9 4.5-7.9 5.8s-6.5 2-10.4 2c-5.4 0-9.6-1.4-12.6-4.2s-4.5-6.6-4.5-11.4c0-3.4 0.6-6.7 1.7-9.7 1.2-3.1 2.8-5.8 5-8.1 2.1-2.3 4.7-4.1 7.8-5.4 3.1-1.4 6.5-2 10.2-2 5.4 0 9.6 1.4 12.6 4.2 2.9 2.8 4.4 6.5 4.4 11.2zm-14.5 13.4c1.2-1.6 2.1-3.4 2.8-5.4 0.7-2.1 1-4.4 1-7.1 0-2.8-0.7-5-2-6.6s-3.3-2.4-5.8-2.4c-1.6 0-3.2 0.4-4.7 1.1s-2.9 1.9-4.1 3.4-2.2 3.3-2.9 5.4c-0.7 2.2-1.1 4.6-1.1 7.3 0 3 0.7 5.3 2.1 6.8s3.3 2.3 5.7 2.3c1.7 0 3.3-0.4 4.9-1.3 1.6-0.7 3-1.9 4.1-3.5z"/><path class="st3" d="m289.6 65.9h-8.6l-11.5-27.2-6.3 27.2h-9.3l9.1-39.3h11.3l9.9 22.7 5.2-22.7h9.4z"/><path class="st3" d="m343.1 26.6-5.7 24.5c-1.3 5.4-3.5 9.4-6.5 11.8s-7.5 3.7-13.3 3.7c-5.2 0-9.1-0.9-11.7-2.8-2.7-1.9-4-4.7-4-8.4 0-0.8 0.1-1.6 0.2-2.3s0.3-1.5 0.4-2.2l5.6-24.3h10.2l-5.6 24.4c-0.1 0.5-0.2 1-0.3 1.6s-0.1 1.1-0.1 1.5c0 1.7 0.5 2.9 1.5 3.8s2.6 1.3 4.9 1.3c2.2 0 4-0.6 5.4-1.8s2.4-3.1 3-5.7l5.8-24.9h10.2z"/><path class="st3" d="m384.6 65.9h-10.1l5.9-25.7-10.8 16.5h-7l-3.5-17.5-6.1 26.7h-9.6l9.1-39.3h11.6l4.3 19.7 13.3-19.7h11.9z"/></g><g class="st4" fill="#2f36c9"><path class="st5" d="m135 67.8h-10.2l-0.9-8h-14.4l-4.6 8h-10.6l23.5-39.3h11.7zm-11.8-15.1-1.6-14-8 14z"/><path class="st5" d="m179.7 38.4c0 3.1-1 5.8-2.9 7.9s-4.5 3.8-7.8 4.9l9.1 16.6h-11.3l-7.4-14.4h-5.7l-3.3 14.4h-10.1l9.1-39.3h15.3c4.8 0 8.5 0.8 11.1 2.4 2.6 1.7 3.9 4.2 3.9 7.5zm-10.9 1.7c0-1.6-0.5-2.7-1.5-3.4s-2.5-1-4.5-1h-5l-2.4 10.5h5c2.7 0 4.8-0.5 6.2-1.6 1.4-1 2.2-2.5 2.2-4.5z"/><path class="st5" d="m203.7 67.8h-23l1.6-7h6.4l5.9-25.3h-6.4l1.6-7h23l-1.6 7h-6.4l-5.9 25.3h6.4z"/><path class="st5" d="m255.4 43.1c0 3.2-0.5 6.4-1.6 9.5s-2.7 5.8-4.7 8.1c-2.3 2.5-4.9 4.5-7.9 5.8s-6.5 2-10.4 2c-5.4 0-9.6-1.4-12.6-4.2s-4.5-6.6-4.5-11.4c0-3.4 0.6-6.7 1.7-9.7 1.2-3.1 2.8-5.8 5-8.1 2.1-2.3 4.7-4.1 7.8-5.4 3.1-1.4 6.5-2 10.2-2 5.4 0 9.6 1.4 12.6 4.2 2.9 2.8 4.4 6.5 4.4 11.2zm-14.5 13.4c1.2-1.6 2.1-3.4 2.8-5.4 0.7-2.1 1-4.4 1-7.1 0-2.8-0.7-5-2-6.6s-3.3-2.4-5.8-2.4c-1.6 0-3.2 0.4-4.7 1.1s-2.9 1.9-4.1 3.4-2.2 3.3-2.9 5.4c-0.7 2.2-1.1 4.6-1.1 7.3 0 3 0.7 5.3 2.1 6.8s3.3 2.3 5.7 2.3c1.7 0 3.3-0.4 4.9-1.3s3-1.9 4.1-3.5z"/><path class="st5" d="m293.7 67.8h-8.7l-11.5-27.2-6.3 27.2h-9.3l9.1-39.3h11.3l9.9 22.7 5.2-22.7h9.4z"/><path class="st5" d="m347.1 28.5-5.7 24.5c-1.3 5.4-3.5 9.4-6.5 11.8s-7.5 3.7-13.3 3.7c-5.2 0-9.1-0.9-11.7-2.8s-4-4.7-4-8.4c0-0.8 0.1-1.6 0.2-2.3s0.3-1.5 0.4-2.2l5.6-24.3h10.2l-5.6 24.3c-0.1 0.5-0.2 1-0.3 1.6s-0.1 1.1-0.1 1.5c0 1.7 0.5 2.9 1.5 3.8s2.6 1.3 4.9 1.3c2.2 0 4-0.6 5.4-1.8s2.4-3.1 3-5.7l5.8-24.9z"/><path class="st5" d="m388.6 67.8h-10.1l5.9-25.7-10.8 16.5h-7l-3.4-17.6-6.2 26.8h-9.6l9.1-39.3h11.6l4.3 19.7 13.3-19.7h11.9z"/></g></g><path class="st1" d="m6.0778 114.19c-1.1512-0.63954-2.4303-1.7907-3.1977-2.814-2.4303-3.7093-1.1512-8.1861 5.5-18.419 9.8489-14.837 22.256-25.71 34.407-29.93l2.814-1.0233-3.3256-5.1163c-3.7093-5.7559-4.4768-8.0582-4.221-12.663 0.12791-2.5582 0.89536-4.4768 6.5233-16.628 4.3489-9.5931 6.7791-14.198 7.6745-15.221 1.6628-1.6628 4.3489-2.5582 6.3954-2.1744 1.7907 0.38372 4.3489 2.5582 5.8838 4.8605 1.7907 2.814 20.082 32.617 39.268 64.082 9.5931 15.605 18.419 30.058 19.826 31.977s2.4302 3.7093 2.4302 3.7093c0 0.12791-9.3373 0.12791-20.721 0.12791l-20.593-0.12791-2.9419-1.407c-4.6047-2.3023-3.1977-0.51163-21.872-29.419l-8.1861-12.663-1.9186 0.25582c-2.4303 0.25582-7.4187 2.3023-11.384 4.7326-7.9303 4.7326-17.395 15.093-24.43 26.861l-1.0233 1.6628h28.14l-4.0931-6.2675c-2.3023-3.4535-4.3489-6.3954-4.4768-6.7791-0.38372-0.63954 7.8024-6.2675 8.314-5.7559 0.25582 0.38372 3.7093 5.3721 10.488 15.349 1.7907 2.6861 2.1744 3.7093 2.4303 5.8838 0.12791 2.3023 0.12791 2.9419-0.89536 4.221-0.63954 0.89536-1.9186 2.0465-3.0698 2.5582-2.0465 1.0233-2.1744 1.0233-21.872 1.0233-19.442 0-19.954 0-21.872-0.89536zm100.28-9.9768c-1.2791-2.1744-8.9536-10.872-13.175-15.221-6.1396-6.0117-11.64-10.233-17.14-13.175-3.9652-2.1744-10.616-4.6047-11.512-4.3489-0.38372 0.12791 0.63954 1.9186 2.4303 4.7326 1.6628 2.4303 6.1396 9.3373 9.9768 15.349 3.8372 5.8838 7.5466 11.384 8.1861 12.023l1.2791 1.2791h10.233c7.9303-0.1279 9.9768-0.25581 9.721-0.63954zm-20.977-35.686c-0.25582-0.51163-4.4768-7.5466-9.4652-15.477-4.8605-7.9303-11-17.907-13.558-22.128-2.5582-4.0931-4.7326-7.5466-4.7326-7.4187-0.63954 0.76745-9.721 21.233-9.721 22.128 0 1.0233 2.1744 4.7326 6.7791 11.64l2.0465 2.9419 4.0931 0.25582c4.4768 0.25582 7.5466 0.89536 12.023 2.5582 3.0698 1.0233 8.6977 3.8372 11 5.3721 1.7907 1.2791 2.1744 1.2791 1.5349 0.12791z" fill="#3d46fe" stroke-width="1.2791"/></svg>
